<svg xmlns="http://www.w3.org/2000/svg" xmlns:xlink="http://www.w3.org/1999/xlink" width="170" height="31" viewBox="0 0 170 31">
  <defs>
    <clipPath id="clip-SPRK_default_preset_name_custom_1">
      <rect width="170" height="31"/>
    </clipPath>
  </defs>
  <g id="SPRK_default_preset_name_custom_1" data-name="SPRK_default_preset_name_custom – 1" clip-path="url(#clip-SPRK_default_preset_name_custom_1)">
    <text id="hirestream" transform="translate(40 -4)" fill="#fff" font-size="26" font-family="SegoeUI, Segoe UI"><tspan x="0" y="28">hire</tspan><tspan y="28" font-family="SegoeUI-Bold, Segoe UI" font-weight="700">stream</tspan></text>
    <g id="Path_1" data-name="Path 1" transform="translate(1)" fill="none">
      <path d="M7,0H24a7,7,0,0,1,7,7V24a7,7,0,0,1-7,7H7a7,7,0,0,1-7-7V7A7,7,0,0,1,7,0Z" stroke="none"/>
      <path d="M 7 2 C 4.242990493774414 2 2 4.242990493774414 2 7 L 2 24 C 2 26.75700950622559 4.242990493774414 29 7 29 L 24 29 C 26.75700950622559 29 29 26.75700950622559 29 24 L 29 7 C 29 4.242990493774414 26.75700950622559 2 24 2 L 7 2 M 7 0 L 24 0 C 27.86598968505859 0 31 3.134010314941406 31 7 L 31 24 C 31 27.86598968505859 27.86598968505859 31 24 31 L 7 31 C 3.134010314941406 31 0 27.86598968505859 0 24 L 0 7 C 0 3.134010314941406 3.134010314941406 0 7 0 Z" stroke="none" fill="#fff"/>
    </g>
    <path id="Path_2" data-name="Path 2" d="M33.333,12.667s-1.429,2.979-3.8,2.878c-.677-.007-1.729-.542-2.7-2.045-3-4.667-8.667-8-13.5,0" transform="translate(-8)" fill="none" stroke="#fff" stroke-width="2"/>
    <path id="Path_3" data-name="Path 3" d="M33.191,13.881a4.63,4.63,0,0,1-3.7,1.662,3.885,3.885,0,0,1-2.854-2.026c-3-4.667-8.534-5.893-13.367,2.107" transform="matrix(-0.996, -0.087, 0.087, -0.996, 40.855, 31.221)" fill="none" stroke="#fff" stroke-width="2"/>
  </g>
</svg>
